<svg width="149" height="74" viewBox="0 0 149 74" fill="none" xmlns="http://www.w3.org/2000/svg">
<g clip-path="url(#clip0_159_640)">
<path d="M32.9382 31.1421L14.8052 73.2076H0L33.527 0L51.7605 40.3221L40.0539 46.4811L32.9382 31.1421Z" fill="black"/>
<path d="M91.0772 40.6746C91.0772 40.6746 67.8686 42.7208 53.7591 42.0462L39.7285 50.0574C39.7285 50.0574 65.7338 48.5938 91.0772 40.6746Z" fill="#D09947"/>
<path d="M75.4018 47.9595C75.4018 47.9595 42.8095 52.6545 37.2316 51.3748L29.2008 55.9601C29.2008 55.9601 38.0953 59.8923 48.6071 60.4972L75.4018 47.9595Z" fill="#D09947"/>
<path d="M43.689 62.8486C43.689 62.8486 33.701 61.6455 28.099 56.698L26.7392 57.4743L19.8574 74.0001L43.689 62.8486Z" fill="#D09947"/>
<path d="M76.0814 56.2156L71.8928 61.363H75.6018L77.8079 58.7893H82.476L83.9789 61.363H87.6558L82.4122 51.5862H77.0726L78.3833 53.3993L77.2005 54.953H80.5257L81.1959 56.2466L76.0814 56.2156Z" fill="black"/>
<path d="M89.6382 55.5805L88.7749 61.363H92.0681L92.5318 58.1053H100.621C100.621 58.1053 102.348 57.9838 102.716 56.4746C103.084 54.965 103.227 53.1198 103.227 53.1198C103.227 53.1198 103.323 51.5862 101.773 51.5862H90.2298L89.8782 54.1559H99.9022L99.7263 55.5965L89.6382 55.5805Z" fill="black"/>
<path d="M105.106 51.5862L104.746 54.1723H117.336L117.695 51.5862H105.106Z" fill="black"/>
<path d="M104.578 55.1921L104.194 57.7658H113.667L114.026 55.1921H104.578Z" fill="black"/>
<path d="M104.003 58.7368L103.667 61.3631H116.281L116.713 58.7368H104.003Z" fill="black"/>
<path d="M118.99 51.5862L123.882 56.4786L117.576 61.363H122.132L125.777 58.3968L128.726 61.363H133.283L128.295 56.4786L134.554 51.5862H130.021L126.329 54.4879L123.427 51.5862H118.99Z" fill="black"/>
<path d="M87.7577 64.2233H71.379L73.2735 66.809H84.1125L83.9925 67.8772H73.0573L72.242 73.9997H84.3759C84.3759 73.9997 86.2704 73.6802 86.6062 72.0046C86.942 70.3294 86.8941 69.8194 86.8941 69.8194C86.8941 69.8194 86.7982 69.2529 86.5583 69.1113L87.2057 67.9498L87.7574 64.2229L87.7577 64.2233ZM83.4654 71.4464H75.8637L75.9837 70.3538H83.6095L83.4658 71.4464H83.4654Z" fill="#D09947"/>
<path d="M91.7387 68.8485L87.6381 74H91.355L93.4411 71.4241H98.1175L99.5083 74H103.273L98.1654 64.2231H95.4556L92.8178 67.5615H96.1989L96.9184 68.8485H91.7387Z" fill="#D09947"/>
<path d="M104.7 64.2231L104.292 66.8049H109.592L108.537 74H111.87L112.854 66.7804H118.057L118.465 64.2231H104.7Z" fill="#D09947"/>
<path d="M133.685 64.2231H122.686C122.686 64.2231 120.927 64.2231 120.575 66.1657L119.776 71.8637C119.776 71.8637 119.456 74.0003 121.598 74.0003H132.278L132.629 71.3456H123.069L123.644 66.7487H133.268L133.684 64.2235L133.685 64.2231Z" fill="#D09947"/>
<path d="M135.603 64.2231L134.228 74H137.554L138.033 70.3417H144.844L144.46 74H147.657L149 64.2231H145.739L145.227 67.784H138.417L138.928 64.2231H135.603Z" fill="#D09947"/>
</g>
<defs>
<clipPath id="clip0_159_640">
<rect width="149" height="74" fill="white"/>
</clipPath>
</defs>
</svg>
