<svg width="39" height="39" viewBox="0 0 39 39" fill="none" xmlns="http://www.w3.org/2000/svg">
<circle cx="19.5" cy="19.5801" r="17.5" fill="white"/>
<path d="M19.0079 0.760498C8.92989 0.760498 0.760254 8.93014 0.760254 19.0082C0.760254 29.0862 8.92989 37.2559 19.0079 37.2559C29.086 37.2559 37.2556 29.0862 37.2556 19.0082C37.2556 8.93014 29.086 0.760498 19.0079 0.760498ZM14.5411 26.5715H10.8459V14.6801H14.5411V26.5715ZM12.6707 13.2202C11.5036 13.2202 10.749 12.3934 10.749 11.3708C10.749 10.3272 11.5264 9.52509 12.7182 9.52509C13.91 9.52509 14.6399 10.3272 14.6627 11.3708C14.6627 12.3934 13.91 13.2202 12.6707 13.2202ZM28.0367 26.5715H24.3416V19.9814C24.3416 18.4474 23.8056 17.4058 22.4693 17.4058C21.4486 17.4058 20.8422 18.111 20.5742 18.7896C20.4754 19.031 20.4506 19.3731 20.4506 19.7134V26.5696H16.7536V18.4722C16.7536 16.9876 16.7061 15.7464 16.6566 14.6782H19.8671L20.0363 16.33H20.1104C20.597 15.5544 21.7888 14.4101 23.7827 14.4101C26.2139 14.4101 28.0367 16.0391 28.0367 19.5404V26.5715Z" fill="#295BB5"/>
</svg>
