<svg width="37" height="37" viewBox="0 0 37 37" fill="none" xmlns="http://www.w3.org/2000/svg">
<g clip-path="url(#clip0_159_664)">
<path d="M36.5 18.25C36.5 8.17087 28.3291 0 18.25 0C8.17087 0 0 8.17087 0 18.25C0 27.359 6.6738 34.9093 15.3984 36.2783V23.5254H10.7646V18.25H15.3984V14.2293C15.3984 9.65539 18.1231 7.12891 22.2918 7.12891C24.2885 7.12891 26.377 7.48535 26.377 7.48535V11.9766H24.0757C21.8086 11.9766 21.1016 13.3834 21.1016 14.8267V18.25H26.1631L25.354 23.5254H21.1016V36.2783C29.8262 34.9093 36.5 27.3592 36.5 18.25Z" fill="#1877F2"/>
<path d="M25.3541 23.5254L26.1632 18.25H21.1017V14.8267C21.1017 13.3832 21.8087 11.9766 24.0759 11.9766H26.3771V7.48535C26.3771 7.48535 24.2886 7.12891 22.2918 7.12891C18.1232 7.12891 15.3986 9.65539 15.3986 14.2293V18.25H10.7648V23.5254H15.3986V36.2783C16.3419 36.4261 17.2953 36.5002 18.2501 36.5C19.205 36.5002 20.1584 36.4261 21.1017 36.2783V23.5254H25.3541Z" fill="white"/>
</g>
<defs>
<clipPath id="clip0_159_664">
<rect width="36.5" height="36.5" fill="white"/>
</clipPath>
</defs>
</svg>
