<svg width="37" height="37" viewBox="0 0 37 37" fill="none" xmlns="http://www.w3.org/2000/svg">
<g clip-path="url(#clip0_159_667)">
<path d="M27.6507 0H8.4645C3.78969 0 0 3.78969 0 8.4645V27.6507C0 32.3255 3.78969 36.1152 8.4645 36.1152H27.6507C32.3255 36.1152 36.1152 32.3255 36.1152 27.6507V8.4645C36.1152 3.78969 32.3255 0 27.6507 0Z" fill="url(#paint0_radial_159_667)"/>
<path d="M27.6507 0H8.4645C3.78969 0 0 3.78969 0 8.4645V27.6507C0 32.3255 3.78969 36.1152 8.4645 36.1152H27.6507C32.3255 36.1152 36.1152 32.3255 36.1152 27.6507V8.4645C36.1152 3.78969 32.3255 0 27.6507 0Z" fill="url(#paint1_radial_159_667)"/>
<path d="M18.059 3.9502C14.2277 3.9502 13.7467 3.96698 12.242 4.0354C10.7401 4.10425 9.71494 4.34196 8.81799 4.69084C7.89 5.05114 7.10294 5.5332 6.31884 6.31757C5.53404 7.10181 5.05199 7.88887 4.69056 8.81644C4.34069 9.71367 4.1027 10.7393 4.03512 12.2405C3.96783 13.7453 3.9502 14.2264 3.9502 18.0578C3.9502 21.8893 3.96712 22.3687 4.0354 23.8734C4.10453 25.3753 4.34224 26.4004 4.69084 27.2974C5.05143 28.2254 5.53348 29.0125 6.31786 29.7965C7.10181 30.5814 7.88887 31.0645 8.81615 31.4248C9.71381 31.7737 10.7391 32.0114 12.2407 32.0803C13.7456 32.1487 14.2261 32.1655 18.0573 32.1655C21.889 32.1655 22.3684 32.1487 23.8731 32.0803C25.375 32.0114 26.4013 31.7737 27.299 31.4248C28.2265 31.0645 29.0124 30.5814 29.7963 29.7965C30.5811 29.0125 31.063 28.2254 31.4246 27.2978C31.7713 26.4004 32.0094 25.375 32.08 23.8737C32.1476 22.3689 32.1652 21.8893 32.1652 18.0578C32.1652 14.2264 32.1476 13.7456 32.08 12.2408C32.0094 10.7389 31.7713 9.71382 31.4246 8.81686C31.063 7.88887 30.5811 7.10181 29.7963 6.31757C29.0116 5.53292 28.2268 5.05086 27.2981 4.69098C26.3988 4.34196 25.373 4.10411 23.8711 4.0354C22.3663 3.96698 21.8872 3.9502 18.0546 3.9502H18.059ZM16.7934 6.49251C17.1691 6.49194 17.5882 6.49251 18.059 6.49251C21.8258 6.49251 22.2722 6.50605 23.7597 6.57363C25.1351 6.63655 25.8817 6.86636 26.379 7.05949C27.0374 7.31512 27.5068 7.62083 28.0002 8.11473C28.494 8.60849 28.7996 9.07869 29.0559 9.73709C29.249 10.2337 29.4791 10.9802 29.5418 12.3557C29.6093 13.8429 29.624 14.2896 29.624 18.0546C29.624 21.8196 29.6093 22.2664 29.5418 23.7535C29.4788 25.1289 29.249 25.8755 29.0559 26.3722C28.8003 27.0306 28.494 27.4994 28.0002 27.9929C27.5065 28.4867 27.0377 28.7922 26.379 29.048C25.8823 29.242 25.1351 29.4712 23.7597 29.5342C22.2725 29.6017 21.8258 29.6164 18.059 29.6164C14.292 29.6164 13.8455 29.6017 12.3584 29.5342C10.9829 29.4707 10.2364 29.2409 9.73864 29.0477C9.08039 28.792 8.61004 28.4864 8.11628 27.9926C7.62252 27.4989 7.31695 27.0298 7.06062 26.3711C6.86749 25.8744 6.63739 25.1278 6.57475 23.7523C6.50718 22.2651 6.49364 21.8185 6.49364 18.0511C6.49364 14.2837 6.50718 13.8394 6.57475 12.3522C6.63767 10.9767 6.86749 10.2301 7.06062 9.73286C7.31639 9.07446 7.62252 8.60426 8.11642 8.1105C8.61033 7.61674 9.08039 7.31103 9.73878 7.05483C10.2361 6.86086 10.9829 6.63161 12.3584 6.56841C13.6598 6.50958 14.1642 6.49194 16.7934 6.48898V6.49251ZM25.5896 8.83492C24.6549 8.83492 23.8967 9.59249 23.8967 10.5273C23.8967 11.4619 24.6549 12.2202 25.5896 12.2202C26.5242 12.2202 27.2824 11.4619 27.2824 10.5273C27.2824 9.59263 26.5242 8.83435 25.5896 8.83435V8.83492ZM18.059 10.8129C14.0581 10.8129 10.8142 14.0568 10.8142 18.0578C10.8142 22.0589 14.0581 25.3012 18.059 25.3012C22.06 25.3012 25.3027 22.0589 25.3027 18.0578C25.3027 14.057 22.0597 10.8129 18.0587 10.8129H18.059ZM18.059 13.3552C20.656 13.3552 22.7616 15.4605 22.7616 18.0578C22.7616 20.6549 20.656 22.7604 18.059 22.7604C15.4619 22.7604 13.3565 20.6549 13.3565 18.0578C13.3565 15.4605 15.4618 13.3552 18.059 13.3552Z" fill="white"/>
</g>
<defs>
<radialGradient id="paint0_radial_159_667" cx="0" cy="0" r="1" gradientUnits="userSpaceOnUse" gradientTransform="translate(9.5931 38.8968) rotate(-90) scale(35.7928 33.2902)">
<stop stop-color="#FFDD55"/>
<stop offset="0.1" stop-color="#FFDD55"/>
<stop offset="0.5" stop-color="#FF543E"/>
<stop offset="1" stop-color="#C837AB"/>
</radialGradient>
<radialGradient id="paint1_radial_159_667" cx="0" cy="0" r="1" gradientUnits="userSpaceOnUse" gradientTransform="translate(-6.04944 2.60156) rotate(78.681) scale(15.9996 65.9509)">
<stop stop-color="#3771C8"/>
<stop offset="0.128" stop-color="#3771C8"/>
<stop offset="1" stop-color="#6600FF" stop-opacity="0"/>
</radialGradient>
<clipPath id="clip0_159_667">
<rect width="36.1152" height="36.1152" fill="white"/>
</clipPath>
</defs>
</svg>
