<svg width="37" height="37" viewBox="0 0 37 37" fill="none" xmlns="http://www.w3.org/2000/svg">
<rect x="5.78882" y="5.08008" width="26" height="26" fill="white"/>
<path fill-rule="evenodd" clip-rule="evenodd" d="M7.52421 1.50488C5.92781 1.50488 4.39681 2.13905 3.26799 3.26787C2.13917 4.39668 1.505 5.92769 1.505 7.52408V28.5913C1.505 30.1877 2.13917 31.7187 3.26799 32.8475C4.39681 33.9763 5.92781 34.6105 7.52421 34.6105H28.5914C30.1878 34.6105 31.7188 33.9763 32.8476 32.8475C33.9764 31.7187 34.6106 30.1877 34.6106 28.5913V7.52408C34.6106 5.92769 33.9764 4.39668 32.8476 3.26787C31.7188 2.13905 30.1878 1.50488 28.5914 1.50488H7.52421ZM7.0216 6.77168C6.85687 6.8329 6.70872 6.93174 6.58893 7.06033C6.46915 7.18892 6.38105 7.34371 6.33166 7.51236C6.28226 7.68101 6.27293 7.85887 6.30441 8.03176C6.33589 8.20465 6.40731 8.36781 6.51298 8.50822L14.9609 19.719L6.06003 29.2669L5.99382 29.3437H9.07415L16.3423 21.5503L21.9282 28.966C22.0577 29.1376 22.2337 29.2687 22.4353 29.3437H29.0895C29.254 29.2821 29.4018 29.1831 29.5213 29.0543C29.6407 28.9256 29.7285 28.7708 29.7776 28.6022C29.8267 28.4335 29.8358 28.2558 29.8041 28.0831C29.7724 27.9103 29.7008 27.7474 29.5951 27.6071L21.1472 16.3964L30.1218 6.77168H27.0369L19.7688 14.5665L14.1799 7.15089C14.0505 6.97869 13.8746 6.8471 13.6728 6.77168H7.0216ZM23.3938 27.1587L9.67757 8.95665H12.7158L26.4305 27.1572L23.3938 27.1587Z" fill="black"/>
</svg>
