<svg width="37" height="37" viewBox="0 0 37 37" fill="none" xmlns="http://www.w3.org/2000/svg">
<circle cx="18.2119" cy="17.8196" r="17.5" fill="white"/>
<path d="M21.2947 17.9302L17.0255 15.9382C16.6529 15.7652 16.3469 15.9591 16.3469 16.3716V20.1238C16.3469 20.5362 16.6529 20.7301 17.0255 20.5572L21.2928 18.5651C21.6672 18.3902 21.6672 18.1051 21.2947 17.9302ZM18.2477 0C8.16964 0 0 8.16964 0 18.2477C0 28.3257 8.16964 36.4954 18.2477 36.4954C28.3257 36.4954 36.4954 28.3257 36.4954 18.2477C36.4954 8.16964 28.3257 0 18.2477 0ZM18.2477 25.6608C8.90715 25.6608 8.74368 24.8187 8.74368 18.2477C8.74368 11.6766 8.90715 10.8346 18.2477 10.8346C27.5882 10.8346 27.7517 11.6766 27.7517 18.2477C27.7517 24.8187 27.5882 25.6608 18.2477 25.6608Z" fill="#E52835"/>
</svg>
